<svg width="143" height="95" viewBox="0 0 143 95" fill="none" xmlns="http://www.w3.org/2000/svg">
<path d="M6.27186 10.1873C8.61364 17.0396 10.888 23.6055 13.136 30.1751C13.5901 31.483 13.9091 32.4065 14.2082 34.1399C14.4438 35.4249 14.8847 38.1606 13.4532 38.1211C12.2742 37.965 11.457 37.704 10.4465 35.5062C7.86579 29.8178 6.15207 23.7913 4.41944 17.8214C2.8931 12.5488 1.80968 8.50487 0.734724 3.76024C0.23283 1.54432 1.21376 0.490743 3.30849 0.463384C5.18847 0.439508 7.11748 0.381789 8.96685 0.712011C15.6412 1.86617 22.2588 3.18979 28.9218 4.45319C29.7504 4.60499 30.4058 4.67368 31.3661 4.99519C32.5259 5.39608 33.3921 5.62327 33.2361 6.80227C33.099 7.92479 31.5089 8.09598 30.6915 8.02331C23.8467 7.5659 9.74294 6.3868 8.97801 6.49504C11.6826 9.63691 14.12 12.6013 16.7271 15.4342C34.9768 35.0754 54.4718 53.249 78.042 66.5681C96.6994 77.1115 116.283 85.2639 137.106 90.3889C138.334 90.6994 139.55 91.1192 140.714 91.5465C142.299 92.1024 143.026 92.6723 142.795 93.5121C142.149 95.0295 140.977 94.9262 140.035 94.925C138.155 94.9489 136.246 94.5734 134.393 94.2168C109.655 89.1883 87.1467 78.813 65.9086 65.433C44.1096 51.7019 26.2759 33.6699 9.91359 14.0575C9.08994 12.9902 6.80636 10.5422 6.27186 10.1873Z" fill="white"/>
</svg>
