<svg width="358" height="358" viewBox="0 0 358 358" fill="none" xmlns="http://www.w3.org/2000/svg">
<path d="M295.058 72.7496L46.3751 145.041L33.3626 110.341C29.0251 94.4371 37.7001 78.5329 52.1584 74.1954L247.346 16.3621C263.25 12.0246 279.154 20.6996 283.492 35.1579L295.058 72.7496Z" stroke="white" stroke-width="28.9167" stroke-linecap="round" stroke-linejoin="round"/>
<path d="M92.6436 62.6296L137.464 119.017" stroke="white" stroke-width="28.9167" stroke-linecap="round" stroke-linejoin="round"/>
<path d="M182.288 35.1587L227.109 92.992" stroke="white" stroke-width="28.9167" stroke-linecap="round" stroke-linejoin="round"/>
<path d="M306.625 230.642V145.042H46.375V260.708C46.375 268.377 49.4216 275.732 54.8445 281.155C60.2674 286.578 67.6225 289.625 75.2917 289.625H191.745" stroke="white" stroke-width="28.9167" stroke-linecap="round" stroke-linejoin="round"/>
<path d="M214.975 234.272L259.693 346.067L278.698 297.995L326.77 278.99L214.975 234.272Z" stroke="white" stroke-width="23.2301" stroke-linecap="round" stroke-linejoin="round"/>
</svg>
