<svg width="296" height="67" viewBox="0 0 296 67" fill="none" xmlns="http://www.w3.org/2000/svg">
<path d="M53.5179 17.5712L10.6247 30.0402L8.38026 24.0551C7.63212 21.3119 9.1284 18.5687 11.6222 17.8206L45.2884 7.84544C48.0316 7.0973 50.7747 8.59358 51.5229 11.0874L53.5179 17.5712Z" stroke="white" stroke-width="4.80253" stroke-linecap="round" stroke-linejoin="round"/>
<path d="M18.6051 15.8257L26.3359 25.5515" stroke="white" stroke-width="4.80253" stroke-linecap="round" stroke-linejoin="round"/>
<path d="M34.0671 11.0875L41.7979 21.0627" stroke="white" stroke-width="4.80253" stroke-linecap="round" stroke-linejoin="round"/>
<path d="M55.5129 44.8047V30.0402H10.6247V49.9906C10.6247 51.3133 11.1501 52.582 12.0855 53.5173C13.0208 54.4527 14.2895 54.9781 15.6122 54.9781H35.6982" stroke="white" stroke-width="4.80253" stroke-linecap="round" stroke-linejoin="round"/>
<path d="M39.7049 45.4308L47.4179 64.7133L50.696 56.4218L58.9875 53.1438L39.7049 45.4308Z" stroke="white" stroke-width="4.36593" stroke-linecap="round" stroke-linejoin="round"/>
<path d="M75 47.5183V19.4817H85.4007V39.7435H107.895V47.5183H75Z" fill="white"/>
<path d="M140.649 43.4346H124.483L122.427 47.5183H111.019L125.693 19.4817H139.56L154.073 47.5183H142.664L140.649 43.4346ZM137.262 36.6806L132.667 27.4921H132.425L127.829 36.6806H137.262Z" fill="white"/>
<path d="M195.294 19.4817V47.5183H183.2L168.083 30.7513H167.841V47.5183H157.964V19.4817H170.219L185.135 36.0131H185.417V19.4817H195.294Z" fill="white"/>
<path d="M228.769 30.6728C228.661 29.9398 228.299 29.233 227.681 28.5524C227.089 27.8455 226.229 27.2696 225.101 26.8246C223.972 26.3534 222.601 26.1178 220.989 26.1178C218.032 26.1178 215.788 26.7592 214.256 28.0419C212.724 29.3246 211.959 31.144 211.959 33.5C211.959 35.856 212.724 37.6754 214.256 38.9581C215.788 40.2408 218.032 40.8822 220.989 40.8822C223.407 40.8822 225.262 40.3979 226.552 39.4293C227.842 38.4607 228.567 37.2304 228.729 35.7382H241.185C241.078 39.9529 239.331 43.1335 235.945 45.2801C232.558 47.4267 227.586 48.5 221.029 48.5C207.376 48.5 200.55 43.5 200.55 33.5C200.55 23.5 207.376 18.5 221.029 18.5C227.533 18.5 232.478 19.5471 235.864 21.6414C239.25 23.7094 240.997 26.7199 241.105 30.6728H228.769Z" fill="white"/>
<path d="M246.479 47.5183V19.4817H256.88V47.5183H246.479Z" fill="white"/>
<path d="M273.304 30.123H294.629V36.2094H273.304V40.7251H296V47.5183H262.903V19.4817H295.597V26.1178H273.304V30.123Z" fill="white"/>
</svg>
