<svg width="1024" height="1536" viewBox="0 0 1024 1536" fill="none" xmlns="http://www.w3.org/2000/svg">
<g clip-path="url(#clip0_185_1161)">
<path d="M1024.47 512.237C1024.47 584.904 1013.47 644.571 991.475 691.237L627.475 1465.24C616.808 1487.24 600.975 1504.57 579.975 1517.24C558.975 1529.9 536.475 1536.24 512.475 1536.24C488.475 1536.24 465.975 1529.9 444.975 1517.24C423.975 1504.57 408.475 1487.24 398.475 1465.24L33.4746 691.237C11.4746 644.571 0.474609 584.904 0.474609 512.237C0.474609 370.904 50.4746 250.237 150.475 150.237C250.475 50.2373 371.141 0.237305 512.475 0.237305C653.808 0.237305 774.475 50.2373 874.475 150.237C974.475 250.237 1024.47 370.904 1024.47 512.237Z" fill="black"/>
<path d="M1024.47 512.237C1024.47 584.904 1013.47 644.571 991.475 691.237L627.475 1465.24C616.808 1487.24 600.975 1504.57 579.975 1517.24C558.975 1529.9 536.475 1536.24 512.475 1536.24C488.475 1536.24 465.975 1529.9 444.975 1517.24C423.975 1504.57 408.475 1487.24 398.475 1465.24L33.4746 691.237C11.4746 644.571 0.474609 584.904 0.474609 512.237C0.474609 370.904 50.4746 250.237 150.475 150.237C250.475 50.2373 371.141 0.237305 512.475 0.237305C653.808 0.237305 774.475 50.2373 874.475 150.237C974.475 250.237 1024.47 370.904 1024.47 512.237Z" fill="url(#paint0_linear_185_1161)"/>
<circle cx="513" cy="523" r="264" fill="white"/>
</g>
<defs>
<linearGradient id="paint0_linear_185_1161" x1="516.5" y1="1546.5" x2="-342.646" y2="957.875" gradientUnits="userSpaceOnUse">
<stop stop-color="#FF4F18"/>
<stop offset="1" stop-color="#FF8500"/>
</linearGradient>
<clipPath id="clip0_185_1161">
<rect width="1024" height="1536" fill="white"/>
</clipPath>
</defs>
</svg>
