<svg width="17" height="14" viewBox="0 0 17 14" fill="none" xmlns="http://www.w3.org/2000/svg">
<path d="M16.25 0H13.3333L14.7833 2.175C14.875 2.31667 14.775 2.5 14.6083 2.5H12.9417C12.6667 2.5 12.4 2.35833 12.25 2.125L10.8333 0H9.16667L10.6167 2.175C10.7083 2.31667 10.6083 2.5 10.4417 2.5H8.775C8.5 2.5 8.23333 2.35833 8.08333 2.125L6.66667 0H5L6.45 2.175C6.54167 2.31667 6.44167 2.5 6.275 2.5H4.60833C4.33333 2.5 4.075 2.35833 3.91667 2.125L2.5 0H1.66667C0.75 0 0.00833333 0.75 0.00833333 1.66667L0 11.6667C0 12.5833 0.75 13.3333 1.66667 13.3333H15C15.9167 13.3333 16.6667 12.5833 16.6667 11.6667V0.416667C16.6667 0.183333 16.4833 0 16.25 0ZM7.70833 9.375L6.66667 11.6667L5.625 9.375L3.33333 8.33333L5.625 7.29167L6.66667 5L7.70833 7.29167L10 8.33333L7.70833 9.375ZM12.45 6.61667L11.6667 8.33333L10.8833 6.61667L9.16667 5.83333L10.8833 5.05L11.6667 3.33333L12.45 5.05L14.1667 5.83333L12.45 6.61667Z" fill="white"/>
</svg>
